<svg xmlns="http://www.w3.org/2000/svg" width="1200" height="800" viewBox="0 0 1200 800" role="img" aria-label="Field Service & Workforce Management System preview">
  <defs>
    <linearGradient id="bg" x1="0" y1="0" x2="1" y2="1">
      <stop offset="0%" stop-color="#0f172a"/>
      <stop offset="55%" stop-color="#1f2937"/>
      <stop offset="100%" stop-color="#111827"/>
    </linearGradient>
    <linearGradient id="accent" x1="0" y1="0" x2="1" y2="0">
      <stop offset="0%" stop-color="#f59e0b"/>
      <stop offset="100%" stop-color="#ef4444"/>
    </linearGradient>
  </defs>
  <rect width="1200" height="800" fill="url(#bg)"/>
  <circle cx="260" cy="620" r="150" fill="#f59e0b" opacity="0.12"/>
  <circle cx="980" cy="220" r="140" fill="#ef4444" opacity="0.12"/>
  <rect x="120" y="140" width="960" height="520" rx="24" fill="#0b1220" stroke="#243244" stroke-width="2"/>
  <rect x="160" y="200" width="520" height="44" rx="10" fill="#101b2f"/>
  <rect x="160" y="268" width="360" height="28" rx="8" fill="#0f172a"/>
  <rect x="160" y="320" width="420" height="28" rx="8" fill="#0f172a"/>
  <rect x="160" y="372" width="300" height="28" rx="8" fill="#0f172a"/>
  <rect x="720" y="220" width="320" height="260" rx="16" fill="#0f172a"/>
  <rect x="720" y="510" width="320" height="110" rx="16" fill="#0f172a"/>
  <rect x="120" y="140" width="960" height="60" rx="24" fill="#0c1628"/>
  <rect x="160" y="162" width="220" height="16" rx="8" fill="url(#accent)"/>
  <text x="160" y="120" fill="#e2e8f0" font-size="40" font-family="Segoe UI, Arial, sans-serif">Field Service & Workforce Management</text>
  <text x="160" y="660" fill="#94a3b8" font-size="22" font-family="Segoe UI, Arial, sans-serif">Live tracking • Job assignments • Operations dashboard</text>
</svg>
