<svg xmlns="http://www.w3.org/2000/svg" width="1200" height="800" viewBox="0 0 1200 800" role="img" aria-label="Finance Management & Loan Processing System preview">
  <defs>
    <linearGradient id="bg" x1="0" y1="0" x2="1" y2="1">
      <stop offset="0%" stop-color="#0f172a"/>
      <stop offset="60%" stop-color="#1e293b"/>
      <stop offset="100%" stop-color="#0b1324"/>
    </linearGradient>
    <linearGradient id="accent" x1="0" y1="0" x2="1" y2="0">
      <stop offset="0%" stop-color="#22c55e"/>
      <stop offset="100%" stop-color="#38bdf8"/>
    </linearGradient>
  </defs>
  <rect width="1200" height="800" fill="url(#bg)"/>
  <circle cx="180" cy="160" r="120" fill="#22c55e" opacity="0.12"/>
  <circle cx="1040" cy="640" r="160" fill="#38bdf8" opacity="0.12"/>
  <rect x="120" y="140" width="960" height="520" rx="24" fill="#0b1220" stroke="#243244" stroke-width="2"/>
  <rect x="160" y="200" width="520" height="44" rx="10" fill="#101b2f"/>
  <rect x="160" y="268" width="420" height="28" rx="8" fill="#0f172a"/>
  <rect x="160" y="320" width="320" height="28" rx="8" fill="#0f172a"/>
  <rect x="160" y="372" width="460" height="28" rx="8" fill="#0f172a"/>
  <rect x="730" y="220" width="300" height="200" rx="16" fill="#0f172a"/>
  <rect x="730" y="450" width="300" height="150" rx="16" fill="#0f172a"/>
  <rect x="120" y="140" width="960" height="60" rx="24" fill="#0c1628"/>
  <rect x="160" y="162" width="200" height="16" rx="8" fill="url(#accent)"/>
  <text x="160" y="120" fill="#e2e8f0" font-size="40" font-family="Segoe UI, Arial, sans-serif">Finance Management & Loan Processing</text>
  <text x="160" y="660" fill="#94a3b8" font-size="22" font-family="Segoe UI, Arial, sans-serif">Loan workflows • Compliance • Analytics • Reporting</text>
</svg>
